<svg xmlns="http://www.w3.org/2000/svg" viewBox="0 0 238.09 281.89"><defs><style>.cls-1{fill:#1d1d1b;}.cls-2{fill:#fff;}.cls-3{fill:#ef7d00;}</style></defs><g id="Слой_2" data-name="Слой 2"><g id="Слой_1-2" data-name="Слой 1"><polyline class="cls-1" points="0.99 0 237.73 94.77 0.44 211.5"/><polyline class="cls-2" points="77.7 162.92 55.66 173.71 38.1 127.31 37.79 182.5 11.68 195.33 12.3 15.32 38.66 25.88 38.38 76.49 53.89 31.97 78.14 41.61 91.59 129.87 104.77 52.23 159.41 74.05 159.25 85.18 127.82 72.71 126.39 81.04 159.12 94.02 158.68 123.17 115.53 144.43 119.74 119.81 141.34 109.16 116.06 99.21 107.68 148.21 78.41 162.58 61.27 73.33 52.3 98.32"/><polyline class="cls-3" points="168.43 77.66 214.22 95.9 167.78 118.65"/><path class="cls-1" d="M181.53,164.52l0,0a15,15,0,0,0,6.45-6.59,23.07,23.07,0,0,0,2.69-9.85c.16-3.3-.44-5.74-1.83-7.33s-3.43-1.69-6.12-.34a14.88,14.88,0,0,0-6.49,6.67,23,23,0,0,0-2.7,9.79c-.17,3.39.46,5.84,1.87,7.36s3.45,1.64,6.09.31m-.41,4.88-.06,0q-6.47,3.24-10.15.53c-2.46-1.81-3.57-5.12-3.33-10a29.07,29.07,0,0,1,4.72-14.37,27.33,27.33,0,0,1,10.86-10.12q6.59-3.3,10.24-.58c2.44,1.81,3.54,5.12,3.3,9.89A28.82,28.82,0,0,1,192,159.48,27.66,27.66,0,0,1,181.12,169.4ZM125.31,165l5.25-2.63L130,173.92q-.42,8.54-1.08,14.53l.14,0q2.76-6.83,6.15-14.09l8.9-18.73,5.74-2.89-1.58,32.63L143,188l.56-11.52q.41-8.28,1.11-13.77l-.13.06q-2.16,5.83-6,14L130,194.5l-6.3,3.17Zm-35,17.54L108,173.7l-.24,4.9-12.06,6.05-1.35,27.73-5.65,2.84ZM69.67,205.92l-.24,4.84-11.68,5.86-.46,9.59,13.05-6.54-.23,4.88-18.72,9.39L53,201.31l18-9-.24,4.89L58.4,203.37l-.41,8.4Zm-56.5,15.34,19.64-9.85L31.22,244l-5.65,2.84,1.35-27.73-8.46,4.24L18,232.11A61.85,61.85,0,0,1,16.43,244a20.22,20.22,0,0,1-4.46,8.6,19.87,19.87,0,0,1-5.59,4.31l-.51-4.43a11,11,0,0,0,3.48-3.44c1.77-2.61,2.82-7.21,3.14-13.75Z"/><polyline class="cls-1" points="212.76 120.4 218.42 117.57 217.78 130.64 230.89 124.07 231.53 111 237.18 108.16 235.59 140.79 229.94 143.63 230.64 129.24 217.53 135.82 216.83 150.2 211.17 153.03"/><polygon class="cls-3" points="168.45 188.52 168.45 198.23 238.09 163.65 238.09 153.93 168.45 188.52"/><polygon class="cls-1" points="160.35 192.54 0 272.18 0 281.89 160.35 202.26 160.35 192.54"/></g></g></svg>