<svg xmlns="http://www.w3.org/2000/svg" viewBox="0 0 525.82 197.9"><defs><style>.cls-1{fill:#1d1d1b;}.cls-2{fill:#ee7d07;}</style></defs><g id="Слой_2" data-name="Слой 2"><g id="Слой_1-2" data-name="Слой 1"><path class="cls-1" d="M9.06,22.53q0,7.41,3.43,11.24a11.18,11.18,0,0,0,8.69,3.82,11.11,11.11,0,0,0,8.66-3.79Q33.22,30,33.21,22.42T29.92,11.23a11.12,11.12,0,0,0-8.74-3.69,11.2,11.2,0,0,0-8.78,3.74c-2.22,2.48-3.34,6.24-3.34,11.25M0,22.83A27.76,27.76,0,0,1,2,11.64a20.32,20.32,0,0,1,4.05-6,17.25,17.25,0,0,1,5.63-3.94A24,24,0,0,1,21.08,0Q30.73,0,36.5,6t5.78,16.65q0,10.58-5.74,16.53t-15.34,6q-9.72,0-15.46-5.94T0,22.83Z"/><path class="cls-1" d="M56.38,22.53q0,7.41,3.43,11.24a11.79,11.79,0,0,0,17.35,0Q80.54,30,80.53,22.42T77.24,11.23A11.12,11.12,0,0,0,68.5,7.54a11.2,11.2,0,0,0-8.78,3.74c-2.22,2.48-3.34,6.24-3.34,11.25m-9.06.3a27.76,27.76,0,0,1,2-11.19,20.32,20.32,0,0,1,4-6A17.15,17.15,0,0,1,59,1.72,24,24,0,0,1,68.4,0Q78,0,83.82,6T89.6,22.63q0,10.58-5.74,16.53t-15.34,6q-9.72,0-15.46-5.94T47.32,22.83Z"/><path class="cls-1" d="M103.7,22.53q0,7.41,3.43,11.24a11.79,11.79,0,0,0,17.35,0q3.38-3.79,3.37-11.38t-3.29-11.19a12.19,12.19,0,0,0-17.52,0c-2.22,2.48-3.34,6.24-3.34,11.25m-9.06.3a27.94,27.94,0,0,1,2-11.19,20.55,20.55,0,0,1,4.06-6,17.15,17.15,0,0,1,5.63-3.94A23.92,23.92,0,0,1,115.72,0q9.63,0,15.42,6t5.78,16.65q0,10.58-5.74,16.53t-15.34,6q-9.72,0-15.46-5.94T94.64,22.83Z"/><path class="cls-1" d="M156.21.79h9.91l10.14,22.55L184.93.79h9.18l-14.73,33.1a32.43,32.43,0,0,1-4.9,8.19A8.21,8.21,0,0,1,168,44.89a28.2,28.2,0,0,1-6.08-.51V37.83c1.25.09,2.37.13,3.38.13a6.84,6.84,0,0,0,4.37-1.12c.87-.75,1.72-2.36,2.52-4.82"/><path class="cls-1" d="M198.64.79h8.82V19.34c2-.2,3.29-.7,4-1.52s1.76-3.07,3.2-6.78q2.73-7.08,5.49-8.8C222,1.09,224.88.52,228.94.52l1.28,0V7L229,7a8.76,8.76,0,0,0-4,.67,5.06,5.06,0,0,0-2,2,42,42,0,0,0-2.28,5.63A20.06,20.06,0,0,1,219,19.08a9,9,0,0,1-3.3,2.86,9,9,0,0,1,4.84,3.35,45.21,45.21,0,0,1,4.2,7.13l5.93,11.92H220.3l-5.22-11.21c-.08-.16-.26-.47-.51-.92-.1-.15-.47-.84-1.09-2.05a13.07,13.07,0,0,0-2.74-4,5.5,5.5,0,0,0-3.28-.84v19h-8.82"/><path class="cls-1" d="M278.53,15.14l-7.67,13.41,7.67,13.72H272l-9.43-13.72L272,15.14m-5.11,0-7.73,13.41,7.73,13.72H260.4L251,28.55l9.43-13.41Z"/><path class="cls-1" d="M289.52.79H320V44.34h-8.82V8.15H298.13V26.74a78.4,78.4,0,0,1-.54,11.15,8,8,0,0,1-2.6,4.94c-1.37,1.17-3.53,1.76-6.45,1.76-1,0-2.9-.1-5.62-.29V37.47l2,0c1.83,0,3.08-.24,3.71-.74s.95-1.71.95-3.65l0-7.48"/><path class="cls-1" d="M347.75,25.91a8.08,8.08,0,0,0-1.87-5.53,5.71,5.71,0,0,0-4.33-1.89,5.78,5.78,0,0,0-4.5,2,7.71,7.71,0,0,0-1.74,5.42m11.95,8.46,8.33,1.4a13.6,13.6,0,0,1-5.06,7,14.92,14.92,0,0,1-8.65,2.39q-8.24,0-12.18-5.37a18.19,18.19,0,0,1-3.12-10.91q0-7.84,4.09-12.3A13.48,13.48,0,0,1,341,12.1q7,0,11.1,4.66T356,31H335.15a8.44,8.44,0,0,0,2,5.78A6.27,6.27,0,0,0,342,38.87a5.07,5.07,0,0,0,3.28-1.07A6.59,6.59,0,0,0,347.26,34.37Z"/><polyline class="cls-1" points="362.48 12.77 383.83 12.77 383.83 19.53 370.81 19.53 370.81 44.34 362.48 44.34"/><polyline class="cls-1" points="387.94 12.77 395.97 12.77 395.97 32.61 408.81 12.77 417.01 12.77 417.01 44.34 408.98 44.34 408.98 24.22 395.97 44.34 387.94 44.34"/><path class="cls-1" d="M432.2,28.62q0,4.71,2.22,7.2a7.09,7.09,0,0,0,5.5,2.5,7,7,0,0,0,5.47-2.5c1.46-1.66,2.2-4.09,2.2-7.26s-.74-5.47-2.2-7.14a7,7,0,0,0-5.47-2.5,7.09,7.09,0,0,0-5.5,2.5q-2.22,2.5-2.22,7.2m-8.57-.45a17.07,17.07,0,0,1,2-8.06,14.1,14.1,0,0,1,5.82-5.95,17.11,17.11,0,0,1,8.38-2.06,15.75,15.75,0,0,1,11.73,4.66,16.11,16.11,0,0,1,4.57,11.77,16.33,16.33,0,0,1-4.61,11.89,15.56,15.56,0,0,1-11.63,4.71,18.29,18.29,0,0,1-8.27-2,13.56,13.56,0,0,1-6-5.76A19.15,19.15,0,0,1,423.63,28.17Z"/><polyline class="cls-1" points="462.37 12.77 470.71 12.77 470.71 24.33 482.75 24.33 482.75 12.77 491.08 12.77 491.08 44.34 482.75 44.34 482.75 31.09 470.71 31.09 470.71 44.34 462.37 44.34"/><path class="cls-1" d="M498.2,42.27l7.72-13.43-7.72-13.7h6.51l9.43,13.7-9.43,13.43m5.17,0,7.73-13.43-7.73-13.7h6.51l9.43,13.7-9.43,13.43Z"/><path class="cls-1" d="M15.63,125.08H9.92a57.21,57.21,0,0,1-7-14.25A46.54,46.54,0,0,1,.55,96.52,44.9,44.9,0,0,1,3.49,80.28,57.12,57.12,0,0,1,10,68H15.7a89.16,89.16,0,0,0-5.64,15.3,57.25,57.25,0,0,0-.63,23.36,66.2,66.2,0,0,0,2.51,9.7q1.05,3,3.69,8.7"/><path class="cls-1" d="M28.35,99a7.83,7.83,0,0,0,1.76,5.43,5.68,5.68,0,0,0,4.39,2,5.48,5.48,0,0,0,4.27-1.88,7.78,7.78,0,0,0,1.68-5.4,7,7,0,0,0-1.71-5,5.65,5.65,0,0,0-4.35-1.88,5.18,5.18,0,0,0-4.55,2.13A7.82,7.82,0,0,0,28.35,99m.79-18.67a5.29,5.29,0,0,0,1.4,3.9,5.05,5.05,0,0,0,3.74,1.4,5.08,5.08,0,0,0,3.78-1.42,5.3,5.3,0,0,0,1.42-3.91,5.12,5.12,0,0,0-1.4-3.77,5,5,0,0,0-3.71-1.42,5.08,5.08,0,0,0-3.81,1.43A5.15,5.15,0,0,0,29.14,80.36Zm-1.74,8.4A9.69,9.69,0,0,1,22.7,85a9.8,9.8,0,0,1-1.47-5.24,10.59,10.59,0,0,1,3.4-8.06q3.39-3.18,9.65-3.18t9.62,3.18a10.54,10.54,0,0,1,3.43,8.06,9.5,9.5,0,0,1-1.58,5.39,10.09,10.09,0,0,1-4.43,3.62A11.75,11.75,0,0,1,46.84,93a11.33,11.33,0,0,1,1.89,6.47,13.16,13.16,0,0,1-3.85,9.83c-2.55,2.53-6,3.78-10.21,3.78A15.39,15.39,0,0,1,24.79,110a12.21,12.21,0,0,1-4.65-10.12,12.6,12.6,0,0,1,1.75-6.52A11.23,11.23,0,0,1,27.4,88.76Z"/><path class="cls-1" d="M75.38,112.31H67.05V80.77a28.63,28.63,0,0,1-10.77,6.35V79.51a23.5,23.5,0,0,0,7.09-4.05,15.4,15.4,0,0,0,5.25-6.95h6.76"/><path class="cls-1" d="M116.09,104.58v7.73H86.83A20.12,20.12,0,0,1,89.68,104Q92.05,100,99.06,93.5A58.67,58.67,0,0,0,106,86.36a9.22,9.22,0,0,0,1.73-5.12A5.8,5.8,0,0,0,106.2,77a6.33,6.33,0,0,0-8.29.07c-1,1-1.61,2.79-1.77,5.23l-8.34-.82q.75-6.92,4.67-9.93a15.7,15.7,0,0,1,9.8-3q6.45,0,10.14,3.49a11.43,11.43,0,0,1,3.68,8.66,15.2,15.2,0,0,1-1,5.62,22.64,22.64,0,0,1-3.35,5.58,53.73,53.73,0,0,1-5.47,5.58c-2.65,2.42-4.32,4-5,4.82a14.4,14.4,0,0,0-1.72,2.32"/><path class="cls-1" d="M121.15,125.08c1.65-3.53,2.81-6.22,3.49-8.1a60.18,60.18,0,0,0,1.87-6.51,69.53,69.53,0,0,0,1.28-7,53.86,53.86,0,0,0,.42-6.77,57.22,57.22,0,0,0-1.52-13.39,89.39,89.39,0,0,0-5.6-15.3h5.66a54.7,54.7,0,0,1,7,13.53,43.74,43.74,0,0,1,2.5,14.52,50,50,0,0,1-2,13.3,55.73,55.73,0,0,1-7.34,15.71"/><path class="cls-1" d="M175.22,96.25V81.37l-10,14.88m10,16.06v-8.76H157.46V96.28L176.3,68.57h7V96.25h5.42v7.3h-5.42v8.76Z"/><path class="cls-1" d="M211.79,83.91a9.47,9.47,0,0,0-1.85-6.25,5.46,5.46,0,0,0-4.28-2.22,4.77,4.77,0,0,0-3.83,1.83c-1,1.21-1.53,3.2-1.53,6s.55,4.87,1.66,6.2a5.21,5.21,0,0,0,4.15,2,5.12,5.12,0,0,0,4-1.9,8.27,8.27,0,0,0,1.64-5.57M193,102.19l8.09-.9a5.92,5.92,0,0,0,1.53,3.68,4.47,4.47,0,0,0,3.26,1.19,5.3,5.3,0,0,0,4.36-2.39c1.2-1.59,2-4.9,2.29-9.89a10,10,0,0,1-7.86,3.64,11.79,11.79,0,0,1-8.87-4,14.5,14.5,0,0,1-3.72-10.33c0-4.41,1.31-8,3.94-10.67a13.34,13.34,0,0,1,10-4,13.49,13.49,0,0,1,10.87,5.13q4.25,5.13,4.25,16.89c0,8-1.47,13.74-4.41,17.27a14.22,14.22,0,0,1-11.5,5.29,12.11,12.11,0,0,1-8.23-2.73C194.93,108.55,193.58,105.81,193,102.19Z"/><path class="cls-1" d="M226.28,100.76l8.09-1a7.78,7.78,0,0,0,2.07,4.74,5.67,5.67,0,0,0,4.08,1.64,5.61,5.61,0,0,0,4.33-2,7.68,7.68,0,0,0,1.75-5.3,7.11,7.11,0,0,0-1.68-5,5.35,5.35,0,0,0-4.12-1.85,14.66,14.66,0,0,0-3.81.62l.92-6.76a7.22,7.22,0,0,0,5.15-1.49,5.22,5.22,0,0,0,1.78-4.15,4.79,4.79,0,0,0-1.31-3.52,4.71,4.71,0,0,0-3.48-1.31,4.93,4.93,0,0,0-3.65,1.5,7,7,0,0,0-1.84,4.34L226.89,80a17.6,17.6,0,0,1,2.42-6.37,11,11,0,0,1,4.52-3.73,15,15,0,0,1,6.48-1.36,12.91,12.91,0,0,1,9.86,3.92,10.36,10.36,0,0,1,3.06,7.3c0,3.83-2.09,6.91-6.27,9.18a10.16,10.16,0,0,1,6,3.61,10.45,10.45,0,0,1,2.24,6.74,13.11,13.11,0,0,1-4.19,9.79,15.59,15.59,0,0,1-20.2.63,13.44,13.44,0,0,1-4.51-8.92"/><rect class="cls-1" x="261.21" y="92.35" width="16.42" height="8.33"/><path class="cls-1" d="M280.62,77V69.3h28.59v6.08a45.17,45.17,0,0,0-7.2,10,58.93,58.93,0,0,0-5.58,13.84,51.8,51.8,0,0,0-1.88,13.11h-8a56.45,56.45,0,0,1,3.72-18.47A61.54,61.54,0,0,1,299.64,77"/><path class="cls-1" d="M333.55,83.91a9.53,9.53,0,0,0-1.85-6.25,5.46,5.46,0,0,0-4.28-2.22,4.77,4.77,0,0,0-3.83,1.83c-1,1.21-1.54,3.2-1.54,6s.56,4.87,1.67,6.2a5.21,5.21,0,0,0,4.14,2,5.12,5.12,0,0,0,4.05-1.9,8.27,8.27,0,0,0,1.64-5.57m-18.8,18.28,8.1-.9a5.92,5.92,0,0,0,1.53,3.68,4.47,4.47,0,0,0,3.26,1.19,5.31,5.31,0,0,0,4.36-2.39c1.2-1.59,2-4.9,2.29-9.89a10,10,0,0,1-7.87,3.64,11.79,11.79,0,0,1-8.86-4,14.5,14.5,0,0,1-3.72-10.33c0-4.41,1.31-8,3.94-10.67a13.34,13.34,0,0,1,10-4,13.49,13.49,0,0,1,10.87,5.13q4.24,5.13,4.25,16.89c0,8-1.47,13.74-4.41,17.27a14.22,14.22,0,0,1-11.5,5.29,12.11,12.11,0,0,1-8.23-2.73C316.69,108.55,315.34,105.81,314.75,102.19Z"/><rect class="cls-1" x="349.14" y="92.35" width="16.43" height="8.33"/><path class="cls-1" d="M384.91,96.25V81.37L375,96.25m10,16.06v-8.76H367.15V96.28L386,68.57h7V96.25h5.42v7.3H393v8.76Z"/><path class="cls-1" d="M402.5,101.12l8.33-.86a7.17,7.17,0,0,0,2.11,4.49,5.78,5.78,0,0,0,4.05,1.66,5.57,5.57,0,0,0,4.43-2.14c1.21-1.43,1.82-3.59,1.82-6.46q0-4-1.81-6a5.94,5.94,0,0,0-4.68-2,8.53,8.53,0,0,0-6.46,3.16l-6.76-1,4.26-22.62h22.08v7.78H414.13l-1.32,7.42A12.79,12.79,0,0,1,428,87.16a14.58,14.58,0,0,1,3.87,10.53,15.85,15.85,0,0,1-3.12,9.63,13.85,13.85,0,0,1-11.8,5.77,14.62,14.62,0,0,1-9.85-3.24,13.35,13.35,0,0,1-4.55-8.73"/><polyline class="cls-2" points="1.75 184.8 1.75 137.66 7.55 137.66 7.55 164.51 21.24 150.63 28.73 150.63 15.69 163.33 30.04 184.8 22.91 184.8 11.56 167.34 7.55 171.25 7.55 184.8"/><path class="cls-2" d="M44,184.8,31.1,150.63h6.2l7.31,20.46q1.19,3.32,2.19,6.89c.52-1.8,1.23-4,2.16-6.5l7.6-20.85H62.5L49.57,184.8"/><path class="cls-2" d="M65.27,174.59l5.73-.91A8.06,8.06,0,0,0,73.69,179a9.46,9.46,0,0,0,6.17,1.83q4,0,5.93-1.63a4.84,4.84,0,0,0,1.93-3.81A3.51,3.51,0,0,0,86,172.27a25.91,25.91,0,0,0-5.93-2,54.83,54.83,0,0,1-8.81-2.77,8.44,8.44,0,0,1-5-7.81,8.89,8.89,0,0,1,1-4.23,9.45,9.45,0,0,1,2.84-3.22,12.05,12.05,0,0,1,3.68-1.68,17.49,17.49,0,0,1,5-.7,19.51,19.51,0,0,1,7,1.17,9.6,9.6,0,0,1,4.49,3.14,12.42,12.42,0,0,1,2,5.31l-5.66.79a6.3,6.3,0,0,0-2.23-4.17,8,8,0,0,0-5.21-1.49q-4,0-5.67,1.31a3.9,3.9,0,0,0-1.71,3.09,3.26,3.26,0,0,0,.71,2,5.08,5.08,0,0,0,2.21,1.54c.59.21,2.28.71,5.11,1.48a73.9,73.9,0,0,1,8.56,2.67,8.9,8.9,0,0,1,3.82,3,8.43,8.43,0,0,1,1.39,4.95A9.63,9.63,0,0,1,92,180.18a11,11,0,0,1-4.87,4,17.87,17.87,0,0,1-7.21,1.39q-6.66,0-10.15-2.75a12.88,12.88,0,0,1-4.46-8.19"/><rect class="cls-2" x="98.19" y="164.85" width="17.91" height="5.79"/><path class="cls-2" d="M120.12,174.59l5.73-.91a8.06,8.06,0,0,0,2.69,5.28,9.45,9.45,0,0,0,6.16,1.83q4,0,5.94-1.63a4.87,4.87,0,0,0,1.93-3.81,3.51,3.51,0,0,0-1.73-3.08,25.91,25.91,0,0,0-5.93-2,54.83,54.83,0,0,1-8.81-2.77,8.44,8.44,0,0,1-5-7.81,8.89,8.89,0,0,1,1-4.23,9.45,9.45,0,0,1,2.84-3.22,12.05,12.05,0,0,1,3.68-1.68,17.49,17.49,0,0,1,5-.7,19.51,19.51,0,0,1,7.05,1.17,9.6,9.6,0,0,1,4.49,3.14,12.42,12.42,0,0,1,2,5.31l-5.66.79a6.3,6.3,0,0,0-2.23-4.17,8,8,0,0,0-5.21-1.49q-4,0-5.68,1.31a3.88,3.88,0,0,0-1.7,3.09,3.2,3.2,0,0,0,.71,2,5.08,5.08,0,0,0,2.21,1.54c.58.21,2.27.71,5.11,1.48a73.9,73.9,0,0,1,8.56,2.67,8.9,8.9,0,0,1,3.82,3,8.43,8.43,0,0,1,1.39,4.95,9.63,9.63,0,0,1-1.69,5.43,11,11,0,0,1-4.87,4,17.87,17.87,0,0,1-7.21,1.39q-6.66,0-10.15-2.75a12.88,12.88,0,0,1-4.46-8.19"/><path class="cls-2" d="M159.69,164.46h19a11.61,11.61,0,0,0-2.18-6.47,8.88,8.88,0,0,0-7.16-3.34,9.16,9.16,0,0,0-6.69,2.66,10.65,10.65,0,0,0-3,7.15m19,9.28,6,.8a14.49,14.49,0,0,1-5.23,8.1,15.66,15.66,0,0,1-9.75,2.89c-5,0-8.94-1.54-11.85-4.61s-4.38-7.38-4.38-12.92c0-5.72,1.47-10.18,4.42-13.34a15,15,0,0,1,11.49-4.76,14.54,14.54,0,0,1,11.16,4.66c2.89,3.1,4.34,7.48,4.34,13.1,0,.34,0,.86,0,1.54H159.36c.22,3.74,1.28,6.62,3.19,8.6a9.46,9.46,0,0,0,7.12,3,8.71,8.71,0,0,0,5.42-1.69A11.08,11.08,0,0,0,178.66,173.74Z"/><path class="cls-2" d="M191.9,184.8V150.63h5.2v5.23a14.08,14.08,0,0,1,3.69-4.79,6.41,6.41,0,0,1,3.72-1.17,11.51,11.51,0,0,1,6,1.84l-2.06,5.35a8.46,8.46,0,0,0-4.22-1.19A5.46,5.46,0,0,0,200.8,157a6.19,6.19,0,0,0-2.14,3.16,22.23,22.23,0,0,0-1,6.74V184.8"/><path class="cls-2" d="M223.23,184.8l-12.89-34.17h6.2l7.31,20.46Q225,174.41,226,178c.52-1.8,1.23-4,2.16-6.5l7.6-20.85h5.95L228.81,184.8"/><path class="cls-2" d="M246.82,150.63h5.79v34.18h-5.79Zm0-13h5.79v6.58h-5.79Z"/><path class="cls-2" d="M283.77,172.29l5.66.8a14.67,14.67,0,0,1-4.76,9.13,13.94,13.94,0,0,1-9.43,3.31A14.64,14.64,0,0,1,264,181q-4.26-4.57-4.26-13.1a23.76,23.76,0,0,1,1.84-9.67,12.7,12.7,0,0,1,5.57-6.2,16.51,16.51,0,0,1,8.14-2.08,14.17,14.17,0,0,1,9.09,2.81,12.91,12.91,0,0,1,4.53,8l-5.59.86a9.39,9.39,0,0,0-2.86-5.18,7.39,7.39,0,0,0-4.94-1.73,9,9,0,0,0-7.12,3.13c-1.82,2.09-2.73,5.38-2.73,9.9s.88,7.92,2.63,10a8.63,8.63,0,0,0,6.88,3.11,8.11,8.11,0,0,0,5.7-2.08c1.53-1.39,2.49-3.53,2.9-6.42"/><path class="cls-2" d="M298.71,164.46h19a11.61,11.61,0,0,0-2.18-6.47,8.86,8.86,0,0,0-7.16-3.34,9.16,9.16,0,0,0-6.69,2.66,10.65,10.65,0,0,0-3,7.15m19,9.28,6,.8a14.44,14.44,0,0,1-5.23,8.1,15.66,15.66,0,0,1-9.75,2.89q-7.47,0-11.85-4.61c-2.92-3.06-4.38-7.38-4.38-12.92,0-5.72,1.47-10.18,4.42-13.34a15,15,0,0,1,11.49-4.76,14.52,14.52,0,0,1,11.16,4.66c2.89,3.1,4.34,7.48,4.34,13.1,0,.34,0,.86,0,1.54H298.38c.22,3.74,1.28,6.62,3.19,8.6a9.49,9.49,0,0,0,7.12,3,8.71,8.71,0,0,0,5.42-1.69A11.08,11.08,0,0,0,317.68,173.74Z"/><rect class="cls-2" x="332.63" y="178.22" width="6.58" height="6.58"/><path class="cls-2" d="M347,174.59l5.73-.91a8,8,0,0,0,2.68,5.28,9.46,9.46,0,0,0,6.17,1.83c2.67,0,4.64-.54,5.94-1.63a4.87,4.87,0,0,0,1.93-3.81,3.51,3.51,0,0,0-1.73-3.08,25.91,25.91,0,0,0-5.93-2,54.15,54.15,0,0,1-8.81-2.77,8.44,8.44,0,0,1-5-7.81,8.89,8.89,0,0,1,1-4.23,9.35,9.35,0,0,1,2.84-3.22,12.05,12.05,0,0,1,3.68-1.68,17.49,17.49,0,0,1,5-.7,19.54,19.54,0,0,1,7.05,1.17,9.65,9.65,0,0,1,4.49,3.14,12.42,12.42,0,0,1,2,5.31l-5.66.79a6.3,6.3,0,0,0-2.23-4.17,8,8,0,0,0-5.21-1.49q-4,0-5.68,1.31a3.88,3.88,0,0,0-1.7,3.09,3.2,3.2,0,0,0,.71,2,5.08,5.08,0,0,0,2.21,1.54c.59.21,2.27.71,5.11,1.48a72.91,72.91,0,0,1,8.55,2.67,8.85,8.85,0,0,1,3.82,3,8.43,8.43,0,0,1,1.4,4.95,9.63,9.63,0,0,1-1.69,5.43,11,11,0,0,1-4.88,4,17.82,17.82,0,0,1-7.2,1.39c-4.43,0-7.83-.92-10.16-2.75a12.91,12.91,0,0,1-4.45-8.19"/><path class="cls-2" d="M387.47,167.93c0,4.37.89,7.62,2.66,9.71a8.15,8.15,0,0,0,6.45,3.15,8.35,8.35,0,0,0,6.59-3.26c1.83-2.18,2.74-5.53,2.74-10.09q0-6.51-2.68-9.75a8,8,0,0,0-6.4-3.24,8.31,8.31,0,0,0-6.52,3.45c-1.89,2.3-2.84,5.63-2.84,10m-5.27,30V150.63h5.27v4.48a13.1,13.1,0,0,1,4.22-3.9,11.49,11.49,0,0,1,5.68-1.31,13.43,13.43,0,0,1,7.72,2.26,13.84,13.84,0,0,1,5,6.33,24.59,24.59,0,0,1-.17,18.39,14.31,14.31,0,0,1-13,8.65,10.87,10.87,0,0,1-5.19-1.22,11.63,11.63,0,0,1-3.78-3.08V197.9Z"/><path class="cls-2" d="M424.1,167.47q0,6.12,1.66,8.85c1.83,3,4.28,4.47,7.39,4.47a8.3,8.3,0,0,0,6.55-3.3c1.85-2.19,2.76-5.46,2.76-9.81s-.88-7.73-2.64-9.85a8.07,8.07,0,0,0-6.41-3.18,8.3,8.3,0,0,0-6.55,3.29c-1.85,2.19-2.76,5.37-2.76,9.53m.06,17.33h-5.4V137.66h5.79v16.82a11.49,11.49,0,0,1,9.37-4.58,14.28,14.28,0,0,1,6,1.27,12.21,12.21,0,0,1,4.64,3.57,17.14,17.14,0,0,1,2.84,5.54,22.53,22.53,0,0,1,1,6.92q0,8.76-4.34,13.55a13.56,13.56,0,0,1-10.41,4.78,10.88,10.88,0,0,1-9.48-5Z"/><rect class="cls-2" x="457.09" y="178.22" width="6.58" height="6.58"/><path class="cls-2" d="M473.67,184.8V150.63h5.21v5.23a14,14,0,0,1,3.69-4.79,6.39,6.39,0,0,1,3.72-1.17,11.54,11.54,0,0,1,6,1.84l-2.07,5.35A8.42,8.42,0,0,0,486,155.9a5.49,5.49,0,0,0-3.4,1.14,6.12,6.12,0,0,0-2.13,3.16,22.22,22.22,0,0,0-1,6.74V184.8"/><path class="cls-2" d="M518,184.8v-5.07a12.45,12.45,0,0,1-10.81,5.8,13.8,13.8,0,0,1-5.63-1.16,9.4,9.4,0,0,1-3.89-2.9,10.88,10.88,0,0,1-1.77-4.29,30,30,0,0,1-.36-5.4V150.63h5.79v18.91a34.09,34.09,0,0,0,.36,6.1,5.91,5.91,0,0,0,2.32,3.58,7.08,7.08,0,0,0,4.35,1.3,9.32,9.32,0,0,0,4.87-1.33,7.4,7.4,0,0,0,3.23-3.62,18.31,18.31,0,0,0,.94-6.67V150.63h5.8V184.8"/></g></g></svg>