<svg xmlns="http://www.w3.org/2000/svg" xmlns:xlink="http://www.w3.org/1999/xlink" viewBox="0 0 348.2 70.94"><defs><style>.cls-1{fill:#323337;}.cls-2{fill:#69b42e;}</style><symbol id="sky_text_2" data-name="sky_text_2" viewBox="0 0 348.19 70.94"><path class="cls-1" d="M5,10.37,2.18,19.09H0V.19H1.86V14.28L3.52,9.07l3-8.88H8.88v18.9H7v-15Z"/><path class="cls-1" d="M13.1,10.58v8.51H11V.19h2.1v8.5h4.63V.19h2.09v18.9H17.73V10.58Z"/><path class="cls-1" d="M24.85,19.09v-17H21.38V.19h9V2.11H27v17Z"/><path class="cls-1" d="M38.68,8.56v1.89h-4.6v6.72h5.65v1.92H32V.19h7.75V2.11H34.08V8.56Z"/><path class="cls-1" d="M45.78.19c3,0,4.22,1.75,4.22,4.62V7.07c0,3-1.4,4.57-4.38,4.57H43.76v7.45h-2.1V.19Zm-.16,9.56c1.56,0,2.31-.73,2.31-2.54V4.7c0-1.73-.62-2.59-2.15-2.59h-2V9.75Z"/><path class="cls-1" d="M53.74,10.58v8.51h-2.1V.19h2.1v8.5h4.63V.19h2.1v18.9h-2.1V10.58Z"/><path class="cls-1" d="M69.32,8.56v1.89h-4.6v6.72h5.64v1.92H62.62V.19h7.74V2.11H64.72V8.56Z"/><path class="cls-1" d="M75.18,19.09v-17H71.71V.19h9V2.11H77.28v17Z"/><path class="cls-1" d="M99.25.19l-7.42,18.9H90L97.42.19Z"/><path class="cls-1" d="M117.49,21.63V19.09h-8.2V.19h2.07v17H116V.19h2.13v17h1.42v4.4Z"/><path class="cls-1" d="M126.28,10.37l-2.77,8.72h-2.18V.19h1.86V14.28l1.67-5.21,3-8.88h2.34v18.9h-1.88v-15Z"/><path class="cls-1" d="M141.24,2.4c3,0,4.36,1.73,4.36,4.73v5.16c0,3-1.35,4.72-4.36,4.72h-1.32v2.08h-2.07V17h-1.32c-3,0-4.35-1.73-4.35-4.72V7.13c0-3,1.34-4.73,4.35-4.73h1.32V.19h2.07V2.4Zm-4.71,1.87c-1.58,0-2.28.91-2.28,2.72v5.43c0,1.81.7,2.75,2.28,2.75h1.32V4.27Zm4.71,10.9c1.59,0,2.31-.94,2.31-2.75V7c0-1.81-.7-2.72-2.31-2.72h-1.32v10.9Z"/><path class="cls-1" d="M151.76.19c3,0,4.22,1.75,4.22,4.62V7.07c0,3-1.4,4.57-4.38,4.57h-1.86v7.45h-2.1V.19Zm-.16,9.56c1.56,0,2.31-.73,2.31-2.54V4.7c0-1.73-.62-2.59-2.15-2.59h-2V9.75Z"/><path class="cls-1" d="M157.46,4.75c0-2.89,1.42-4.75,4.3-4.75s4.33,1.86,4.33,4.75v9.78c0,2.86-1.42,4.75-4.33,4.75s-4.3-1.89-4.3-4.75Zm2.07,9.88c0,1.73.73,2.73,2.23,2.73s2.23-1,2.23-2.73v-10c0-1.7-.69-2.72-2.23-2.72s-2.23,1-2.23,2.72Z"/><path class="cls-1" d="M172.31.19c2.93,0,4.08,1.4,4.08,4.18v.9c0,2-.56,3.24-2.2,3.75,1.83.51,2.53,2,2.53,4.05v1.59c0,2.84-1.37,4.43-4.31,4.43h-4.33V.19Zm-.52,8c1.67,0,2.53-.54,2.53-2.51V4.59c0-1.67-.56-2.48-2.07-2.48h-2.07v6.1Zm.62,9c1.54,0,2.24-.81,2.24-2.56V12.93c0-2.1-.84-2.8-2.64-2.8h-1.83v7Z"/><path class="cls-1" d="M178.47,4.75c0-2.89,1.42-4.75,4.3-4.75s4.33,1.86,4.33,4.75v9.78c0,2.86-1.43,4.75-4.33,4.75s-4.3-1.89-4.3-4.75Zm2.07,9.88c0,1.73.72,2.73,2.23,2.73s2.23-1,2.23-2.73v-10c0-1.7-.7-2.72-2.23-2.72s-2.23,1-2.23,2.72Z"/><path class="cls-1" d="M195.79,8.56v1.89h-4.6v6.72h5.65v1.92h-7.75V.19h7.75V2.11h-5.65V8.56Z"/><path class="cls-1" d="M205.66,19.09v-17h-3.47V.19h9V2.11h-3.47v17Z"/><path class="cls-1" d="M214.21.19l3.07,16.44,3-16.44h1.93l-3.52,18.9h-3.09L212.09.19Z"/><path class="cls-1" d="M240.81.19l-7.42,18.9h-1.83L239,.19Z"/><path class="cls-1" d="M253.54,19.09v-17h-3.47V.19h9V2.11h-3.47v17Z"/><path class="cls-1" d="M267.36,8.56v1.89h-4.6v6.72h5.65v1.92h-7.75V.19h7.75V2.11h-5.65V8.56Z"/><path class="cls-1" d="M274.36,2.11l-.43,12.28c-.11,3-.92,4.7-3.8,4.73h-.35V17.2c1.75,0,2.05-.89,2.1-2.7L272.39.19h7.67v18.9H278v-17Z"/><path class="cls-1" d="M289,8.56v1.89h-4.6v6.72H290v1.92h-7.75V.19H290V2.11h-5.65V8.56Z"/><path class="cls-1" d="M300.88,2.4c3,0,4.35,1.73,4.35,4.73v5.16c0,3-1.34,4.72-4.35,4.72h-1.32v2.08h-2.07V17h-1.32c-3,0-4.36-1.73-4.36-4.72V7.13c0-3,1.35-4.73,4.36-4.73h1.32V.19h2.07V2.4Zm-4.71,1.87c-1.59,0-2.29.91-2.29,2.72v5.43c0,1.81.7,2.75,2.29,2.75h1.32V4.27Zm4.71,10.9c1.58,0,2.31-.94,2.31-2.75V7c0-1.81-.7-2.72-2.31-2.72h-1.32v10.9Z"/><path class="cls-1" d="M307.12,4.75c0-2.89,1.42-4.75,4.3-4.75s4.33,1.86,4.33,4.75v9.78c0,2.86-1.42,4.75-4.33,4.75s-4.3-1.89-4.3-4.75Zm2.07,9.88c0,1.73.72,2.73,2.23,2.73s2.23-1,2.23-2.73v-10c0-1.7-.7-2.72-2.23-2.72s-2.23,1-2.23,2.72Z"/><path class="cls-1" d="M319.84,10.58v8.51h-2.1V.19h2.1v8.5h4.63V.19h2.09v18.9h-2.09V10.58Z"/><path class="cls-1" d="M333.66,10.37l-2.77,8.72h-2.17V.19h1.85V14.28l1.67-5.21,3-8.88h2.34v18.9h-1.88v-15Z"/><path class="cls-1" d="M344.58,11c-1.74,0-2.74.67-2.74,2.8v3a5,5,0,0,1-.35,2.3h-2.12a5.15,5.15,0,0,0,.37-2.27V13.88c0-2,.65-3.43,2.34-3.94-1.58-.52-2.31-1.81-2.31-3.89V4.51c0-2.81,1.24-4.32,4.2-4.32h4.19v18.9h-2.1V11ZM344,2.11c-1.56,0-2.18.89-2.18,2.59V6.51c0,2.05,1,2.59,2.64,2.59h1.58v-7Z"/><path class="cls-1" d="M13.1,39.35c0-3.72-1.32-4.72-3.42-4.72S6.25,35.75,6.25,38.7v2.65H0V39.11c0-6.6,3.37-10.37,9.86-10.37s9.86,3.77,9.86,10.37v1.06c0,4.42-1.45,7.19-4.63,8.49,3.3,1.41,4.63,4.48,4.63,8.66v3.25c0,6.6-3.37,10.37-9.86,10.37S0,67.17,0,60.57V57.15H6.25V61c0,3,1.32,4.07,3.43,4.07s3.42-1,3.42-4.66V57.15c0-3.83-1.32-5.25-4.32-5.25H6.55V46H9.14c2.46,0,4-1.06,4-4.36Z"/><path class="cls-1" d="M33.66,70.94c-6.67,0-10.34-3.77-10.34-10.37V57.32c0-3.94,1.21-7,4.09-8.6-2.76-1.47-4.09-4.24-4.09-8.31v-1.3c0-6.6,3.67-10.37,10.34-10.37S44,32.51,44,39.11v1.3c0,4.07-1.38,6.84-4.09,8.31C42.8,50.31,44,53.38,44,57.32v3.25C44,67.17,40.34,70.94,33.66,70.94ZM29.94,41.65C29.94,45,31.5,46,33.66,46s3.73-1.06,3.73-4.36v-2.3c0-3.72-1.62-4.72-3.73-4.72s-3.72,1-3.72,4.72Zm3.72,23.4c2.11,0,3.67-1,3.73-4.66V56.56c0-3.24-1.38-4.66-3.73-4.66s-3.72,1.42-3.72,4.66v3.83C29.94,64,31.56,65.05,33.66,65.05Z"/><path class="cls-1" d="M47.55,39.47c0-7,3.24-10.73,10.1-10.73,6.49,0,9.86,3.77,9.86,10.37v1.06H61.25V38.7c0-3-1.32-4.07-3.42-4.07-2.35,0-3.67,1.12-3.67,5.07v7.55a6.31,6.31,0,0,1,6.13-3.66c4.87,0,7.34,3.36,7.34,9.43v7.55c0,6.6-3.55,10.37-10,10.37s-10-3.77-10-10.37Zm6.61,14.08V61c0,3,1.32,4,3.43,4S61,63.93,61,61V53.55c0-2.94-1.32-4.06-3.42-4.06S54.16,50.61,54.16,53.55Z"/><path class="cls-1" d="M72.4,46.89h12v5.9h-12Z"/><path class="cls-1" d="M97.68,34.63c-2.1,0-3.42,1.12-3.42,4.07v4.42H88v-4c0-6.6,3.37-10.37,9.86-10.37s9.86,3.77,9.86,10.37c0,13-13.16,17.8-13.16,24.58a4.34,4.34,0,0,0,.06.88h12.5v5.9H88V65.4c0-12.14,13.11-14.15,13.11-26.05C101.11,35.63,99.79,34.63,97.68,34.63Z"/><path class="cls-1" d="M111.27,39.11c0-6.6,3.54-10.37,10-10.37s10,3.77,10,10.37V60.57c0,6.6-3.54,10.37-10,10.37s-10-3.77-10-10.37ZM117.88,61c0,3,1.32,4.07,3.43,4.07s3.42-1.12,3.42-4.07V38.7c0-3-1.32-4.07-3.42-4.07s-3.43,1.12-3.43,4.07Z"/><path class="cls-1" d="M136.23,46.89h12v5.9h-12Z"/><path class="cls-1" d="M161.52,34.63c-2.1,0-3.43,1.12-3.43,4.07v4.42h-6.25v-4c0-6.6,3.37-10.37,9.86-10.37s9.86,3.77,9.86,10.37c0,13-13.17,17.8-13.17,24.58a4.34,4.34,0,0,0,.06.88H171v5.9H151.84V65.4c0-12.14,13.11-14.15,13.11-26.05C165,35.63,163.62,34.63,161.52,34.63Z"/><path class="cls-1" d="M175.11,39.11c0-6.6,3.54-10.37,10-10.37s10,3.77,10,10.37V60.57c0,6.6-3.54,10.37-10,10.37s-10-3.77-10-10.37ZM181.72,61c0,3,1.32,4.07,3.42,4.07s3.43-1.12,3.43-4.07V38.7c0-3-1.32-4.07-3.43-4.07s-3.42,1.12-3.42,4.07Z"/><rect class="cls-2" x="211.01" y="63.61" width="137.16" height="6.86"/><path class="cls-1" d="M217.86,29.34c4.36,0,6.6,2.61,6.6,7.17v.9h-4.23V36.22c0-2-.82-2.81-2.24-2.81s-2.25.78-2.25,2.81c0,5.87,8.76,7,8.76,15.12,0,4.56-2.28,7.17-6.68,7.17s-6.68-2.61-6.68-7.17V49.59h4.24v2c0,2,.9,2.77,2.32,2.77s2.32-.73,2.32-2.77c0-5.86-8.76-7-8.76-15.11C211.26,32,213.51,29.34,217.86,29.34Z"/><path class="cls-1" d="M233.76,46.82l-1.39,2.6v8.76h-4.48V29.67h4.48V42.09l5.87-12.42h4.48l-6.23,12.71,6.23,15.8h-4.6Z"/><path class="cls-1" d="M249.77,48.73l-5.66-19.06h4.69l3.42,13,3.42-13h4.28l-5.66,19.06v9.45h-4.49Z"/><path class="cls-1" d="M266.53,37.53V58.18h-4V29.67h5.63l4.6,17.06V29.67h4V58.18h-4.6Z"/><path class="cls-1" d="M285.23,41.68h6.16v4.08h-6.16v8.35H293v4.07H280.75V29.67H293v4.07h-7.75Z"/><path class="cls-1" d="M295.26,29.67h13.85v4.07h-4.68V58.18H300V33.74h-4.69Z"/><path class="cls-1" d="M313.76,53.86v4.32h-4.32V53.86Z"/><path class="cls-1" d="M327.21,58.18a8.61,8.61,0,0,1-.41-3.5V50.2c0-2.65-.9-3.63-2.93-3.63h-1.55V58.18h-4.48V29.67h6.76c4.64,0,6.64,2.16,6.64,6.55v2.25c0,2.93-.94,4.84-2.93,5.78,2.24.94,3,3.1,3,6.07v4.4a8.37,8.37,0,0,0,.49,3.46Zm-4.89-24.44V42.5h1.75c1.67,0,2.69-.73,2.69-3V36.67c0-2-.69-2.93-2.28-2.93Z"/><path class="cls-1" d="M339.32,29.67v22c0,2,.89,2.77,2.32,2.77S344,53.7,344,51.66v-22h4.24V51.38c0,4.56-2.29,7.17-6.68,7.17s-6.68-2.61-6.68-7.17V29.67Z"/></symbol></defs><g id="Слой_2" data-name="Слой 2"><g id="Слой_1-2" data-name="Слой 1"><use width="348.2" height="70.94" xlink:href="#sky_text_2"/></g></g></svg>