<svg xmlns="http://www.w3.org/2000/svg" viewBox="0 0 164.43 94.01"><defs><style>.cls-1{fill:#62b22f;}.cls-2{fill:#fff;}.cls-3{fill:#3c3c3a;}</style></defs><g id="Слой_2" data-name="Слой 2"><g id="Слой_1-2" data-name="Слой 1"><path class="cls-1" d="M48.32,41.63c-3.34-3.29-9.24-5.24-10.73-5.7,0,0-1-.34-11.41-3.7-1.71-.55-10.07-2.68-10.07-10.07s7.05-9.74,10.74-9.74a15.73,15.73,0,0,1,10.06,3.36c5,3.69,9.4,15.45,9.4,15.45H50V9.74H46.31l-3,3A33.43,33.43,0,0,0,26.18,8.06c-12.42,0-24.5,6.38-24.5,19.47S13.76,45.66,17.79,47s7.35,2.32,12.41,4c4.63,1.56,8.73,4,8.73,10.08s-4.69,8.46-7.72,9.06c-1.68.34-2,.34-1,.34H45a14.55,14.55,0,0,0,4-3.36,19,19,0,0,0,4.7-12.09,18.17,18.17,0,0,0-5.37-13.43"/><path class="cls-1" d="M23.73,70.38h0a18,18,0,0,1-5.27-1.55,23.94,23.94,0,0,1-6.72-5.08,32.81,32.81,0,0,1-4.48-6.5,59.16,59.16,0,0,1-2.55-5.88H0V70.51H23.75s.05,0,.05-.06a.07.07,0,0,0-.07-.07"/><path class="cls-1" d="M103.36,86.46a13.93,13.93,0,0,1,5.71-11.25H0V94H105.58a13.9,13.9,0,0,1-2.22-7.55"/><path class="cls-1" d="M141.27,93.89a3.41,3.41,0,0,1-1.6-.39,3.55,3.55,0,0,1-1.56-4.77l13.28-26.11L138.11,36.51a3.55,3.55,0,1,1,6.33-3.22L158.54,61a3.58,3.58,0,0,1,0,3.22L144.44,92a3.54,3.54,0,0,1-3.17,1.94"/><path class="cls-2" d="M14,77.84H11.67v2.34h-1.6v2.11h1.6v5.56c0,1.64.92,2.47,2.73,2.47A10.85,10.85,0,0,0,16,90.16l.31,0V87.85l-.44.1a5,5,0,0,1-1,.12c-.66,0-.77-.16-.77-.7V82.29h2.26V80.18H14Z"/><path class="cls-2" d="M24.21,79.89c-3.27,0-5.39,2.06-5.39,5.25s2.12,5.18,5.39,5.18c2.59,0,4.48-1.22,5.18-3.35l.15-.47H26.87l-.08.24a2.51,2.51,0,0,1-2.58,1.33,2.62,2.62,0,0,1-2.9-2.25h8.25v-.68c0-3.24-2-5.25-5.35-5.25m0,2.24A2.63,2.63,0,0,1,27,83.93H21.42a2.66,2.66,0,0,1,2.79-1.8"/><rect class="cls-2" x="32.23" y="76.97" width="2.36" height="13.09"/><path class="cls-2" d="M42.66,79.89c-3.27,0-5.38,2.06-5.38,5.25s2.11,5.18,5.38,5.18c2.6,0,4.48-1.22,5.18-3.35L48,86.5H45.33l-.09.24c-.31.85-1.25,1.33-2.58,1.33a2.63,2.63,0,0,1-2.9-2.25H48v-.68c0-3.24-2-5.25-5.35-5.25m0,2.24a2.65,2.65,0,0,1,2.78,1.8H39.87a2.67,2.67,0,0,1,2.79-1.8"/><path class="cls-2" d="M58.57,86.22a2.27,2.27,0,0,1-2.5,1.85,2.7,2.7,0,0,1-2.9-2.92,2.78,2.78,0,0,1,3-3,2.24,2.24,0,0,1,2.33,1.55l.08.26H61l-.08-.42c-.43-2.24-2.31-3.63-4.91-3.63a5.06,5.06,0,0,0-5.33,5.25A5,5,0,0,0,56,90.32a4.66,4.66,0,0,0,5-4l.08-.42H58.61Z"/><path class="cls-2" d="M69.25,79.89c-3.34,0-5.49,2.06-5.49,5.25s2.15,5.18,5.49,5.18,5.47-2,5.47-5.18-2.15-5.25-5.47-5.25m0,8.18a3,3,0,1,1,3-3,2.73,2.73,0,0,1-3,3"/><path class="cls-2" d="M90.47,79.89a4.9,4.9,0,0,0-3.79,1.72,3.62,3.62,0,0,0-3.37-1.72,5,5,0,0,0-3.43,1.33v-1H77.52v9.88h2.36v-5a2.92,2.92,0,0,1,3-3.06c1.36,0,1.84.63,1.84,2.4v5.67h2.32v-5a2.92,2.92,0,0,1,3-3.06c1.37,0,1.85.63,1.85,2.4v5.67h2.36V84.45c0-2.12-.43-4.56-3.85-4.56"/><path class="cls-3" d="M142,56.74s-8.78-17.18-10.09-19.81c-3-6,1.46-5.7,5.06-5.7v-3.7H86.24v3.71c7.05,0,9.59,1.47,3.36,7.72C84.74,43.83,76.51,52,76.51,52V3.36l-21.81,1V8.06a10.26,10.26,0,0,1,5.35,1.68c1.67,1.31,1.7,5,1.7,5V70.51H76.51V58.76l5.37-5.37L94.3,70.51h18.45L92.62,43s.39-.72,5-5.38c10-10,14.33-7,18.44,1,2.79,5.44,13.74,26.94,17.47,34.59a34.92,34.92,0,0,1-5.46,8.72c-2.47,2.82-4.09,3-4.27,2.69a12,12,0,0,0-.84-1.16,8.47,8.47,0,0,0-1.27-1.62c-3-3-7.64-3.28-10.33-.59s-2.42,7.31.6,10.32A8.09,8.09,0,0,0,117.73,94h0c4.77,0,10.63,0,22.5-23.5l6.25-12.24L143.85,53Z"/><path class="cls-3" d="M146.65,27.53v3.7c4.7,0,8.35-.06,5.37,5.7l-1.54,3,2.69,5.29L156,39.62c3.07-5.9,4.5-8.39,8.39-8.39v-3.7Z"/><path class="cls-3" d="M97,20.82V19.14H94.3V9.06a4.62,4.62,0,0,1,1.07-1.34,7.11,7.11,0,0,1,1.37-1.13,8.26,8.26,0,0,1,3.33-1.11,7.34,7.34,0,0,1,3.29.31,3.4,3.4,0,0,1,1.89,1.61,7.32,7.32,0,0,1,.76,3.54V19.1h-2.65v1.72H114.1V19.1h-3V10.41a8.58,8.58,0,0,0-.88-4.18,5.37,5.37,0,0,0-3.14-2.49,14.6,14.6,0,0,0-4.46-.55,12.51,12.51,0,0,0-4.29.63A11.31,11.31,0,0,0,96.15,5,7.73,7.73,0,0,0,94.3,6.58V3.36H86.24V5h3v14.1h-3v1.68Z"/><path class="cls-3" d="M138.46,18.63A9.62,9.62,0,0,1,133.55,21a19,19,0,0,1-6.16.14c-3.8-.45-7.94-2.16-9.21-6.2a9.69,9.69,0,0,1,.06-5.74,7.47,7.47,0,0,1,2.89-3.85,11.75,11.75,0,0,1,4.6-1.8,19,19,0,0,1,6.07-.17,10.06,10.06,0,0,1,5.53,2.18,5.36,5.36,0,0,1,1.53,2.27,6.66,6.66,0,0,1,.21,3,13.07,13.07,0,0,1-.29,1.54H122.94a6,6,0,0,0,1,3.37,6.27,6.27,0,0,0,2.65,2.13,10.46,10.46,0,0,0,3.38.86,13.08,13.08,0,0,0,3.59-.07,11,11,0,0,0,3.66-1.27ZM129.31,4.75a6.25,6.25,0,0,0-4.57,1.47,7,7,0,0,0-1.66,4.42h11.13a5.53,5.53,0,0,0-1-4.42,5,5,0,0,0-3.92-1.47"/><path class="cls-3" d="M146.65,0V3.36h-4v2h4V16.31a5.19,5.19,0,0,0,.74,2.94,4.14,4.14,0,0,0,2.13,1.5,10.18,10.18,0,0,0,3.29.49,15.5,15.5,0,0,0,3.9-.43,10.79,10.79,0,0,0,3.7-1.55l-1.35-1.42-.68.37a11,11,0,0,1-1.79.68,7.85,7.85,0,0,1-1.87.23,2.83,2.83,0,0,1-2.36-1,4.83,4.83,0,0,1-.68-2.76V5.37h7.38v-2h-7.38V0Z"/></g></g></svg>